<svg width="24" height="24" viewBox="0 0 24 24" fill="none" xmlns="http://www.w3.org/2000/svg">
<path fill-rule="evenodd" clip-rule="evenodd" d="M7 6C6.20435 6 5.44129 6.31607 4.87868 6.87868C4.31607 7.44129 4 8.20435 4 9V15C4 15.7956 4.31607 16.5587 4.87868 17.1213C5.44129 17.6839 6.20435 18 7 18H17C17.7956 18 18.5587 17.6839 19.1213 17.1213C19.6839 16.5587 20 15.7956 20 15V9C20 8.20435 19.6839 7.44129 19.1213 6.87868C18.5587 6.31607 17.7956 6 17 6H7ZM3.46447 5.46447C4.40215 4.52678 5.67392 4 7 4H17C18.3261 4 19.5979 4.52678 20.5355 5.46447C21.4732 6.40215 22 7.67392 22 9V15C22 16.3261 21.4732 17.5979 20.5355 18.5355C19.5979 19.4732 18.3261 20 17 20H7C5.67392 20 4.40215 19.4732 3.46447 18.5355C2.52678 17.5979 2 16.3261 2 15V9C2 7.67392 2.52678 6.40215 3.46447 5.46447Z" fill="#101010"/>
<path fill-rule="evenodd" clip-rule="evenodd" d="M9.5073 8.1298C9.82081 7.95229 10.2056 7.95715 10.5145 8.14251L15.5145 11.1425C15.8157 11.3232 16 11.6487 16 12C16 12.3513 15.8157 12.6768 15.5145 12.8575L10.5145 15.8575C10.2056 16.0429 9.82081 16.0477 9.5073 15.8702C9.19379 15.6927 9 15.3603 9 15V9C9 8.63973 9.19379 8.30731 9.5073 8.1298ZM11 10.7662V13.2338L13.0563 12L11 10.7662Z" fill="#101010"/>
</svg>
