<svg width="24" height="24" viewBox="0 0 24 24" fill="none" xmlns="http://www.w3.org/2000/svg">
<path fill-rule="evenodd" clip-rule="evenodd" d="M11 3C11 2.44772 11.4477 2 12 2H16.083C16.5708 2 16.9874 2.35194 17.0689 2.83288C17.2425 3.85672 17.7302 4.80123 18.4645 5.53552C19.1988 6.26981 20.1433 6.75752 21.1671 6.93106C21.6481 7.01258 22 7.4292 22 7.917V11.951C22 12.2334 21.8806 12.5026 21.6713 12.6922C21.462 12.8818 21.1823 12.974 20.9013 12.9461C19.5352 12.8106 18.2126 12.42 17 11.8003V14.5C16.9997 15.909 16.6025 17.2896 15.8539 18.4833C15.1053 19.677 14.0356 20.6356 12.7673 21.2495C11.499 21.8633 10.0835 22.1074 8.6829 21.9539C7.2823 21.8004 5.95325 21.2555 4.84804 20.3815C3.74284 19.5076 2.90616 18.34 2.43388 17.0125C1.96159 15.685 1.8728 14.2513 2.17768 12.8757C2.48256 11.5001 3.16877 10.2382 4.15769 9.23455C5.14662 8.23091 6.39827 7.52614 7.76923 7.20099C8.06679 7.13042 8.38028 7.19988 8.62017 7.38954C8.86007 7.57919 9 7.86819 9 8.174V12.5C9 12.8148 8.85181 13.1111 8.6 13.3C8.39545 13.4534 8.23352 13.6566 8.12956 13.8902C8.02561 14.1238 7.9831 14.3801 8.00606 14.6347C8.02902 14.8894 8.1167 15.1339 8.26076 15.3452C8.40482 15.5564 8.60049 15.7273 8.82918 15.8416C9.05787 15.956 9.31199 16.01 9.56742 15.9985C9.82285 15.987 10.0711 15.9104 10.2886 15.776C10.5061 15.6416 10.6856 15.4538 10.8101 15.2304C10.9346 15.0071 11 14.7557 11 14.5V3ZM13 4V14.5C13 15.0966 12.8475 15.6833 12.557 16.2044C12.2665 16.7255 11.8476 17.1636 11.3401 17.4773C10.8326 17.7909 10.2533 17.9696 9.65732 17.9965C9.06133 18.0233 8.46837 17.8973 7.93475 17.6305C7.40114 17.3637 6.94458 16.9649 6.60844 16.472C6.27229 15.9791 6.06772 15.4085 6.01414 14.8143C5.96057 14.2201 6.05976 13.6221 6.30231 13.077C6.47244 12.6947 6.70913 12.3474 7 12.0505V9.59958C6.47731 9.86631 5.99814 10.2163 5.58231 10.6383C4.8571 11.3743 4.35387 12.2997 4.1303 13.3085C3.90672 14.3173 3.97184 15.3686 4.31818 16.3421C4.66452 17.3156 5.27808 18.1718 6.08857 18.8127C6.89905 19.4536 7.87368 19.8532 8.9008 19.9658C9.92791 20.0784 10.966 19.8994 11.896 19.4492C12.8261 18.9991 13.6105 18.2961 14.1595 17.4207C14.7084 16.5454 14.9997 15.5332 15 14.5C15 14.4999 15 14.5001 15 14.5V10C15 9.62093 15.2143 9.27444 15.5535 9.1052C15.8927 8.93596 16.2985 8.97305 16.6013 9.201C17.6136 9.96288 18.7726 10.4985 20 10.7773V8.70882C18.8903 8.37759 17.8754 7.77491 17.0503 6.94973C16.2251 6.12456 15.6224 5.10971 15.2912 4H13Z" fill="#101010"/>
</svg>
