<svg width="20" height="20" viewBox="0 0 20 20" fill="none" xmlns="http://www.w3.org/2000/svg">
<path fill-rule="evenodd" clip-rule="evenodd" d="M8.82116 8.82116C9.13372 8.5086 9.55765 8.33301 9.99967 8.33301C10.4417 8.33301 10.8656 8.5086 11.1782 8.82116C11.4907 9.13372 11.6663 9.55765 11.6663 9.99967C11.6663 10.4417 11.4907 10.8656 11.1782 11.1782C10.8656 11.4907 10.4417 11.6663 9.99967 11.6663C9.55765 11.6663 9.13372 11.4907 8.82116 11.1782C8.5086 10.8656 8.33301 10.4417 8.33301 9.99967C8.33301 9.55765 8.5086 9.13372 8.82116 8.82116Z" fill="#101010"/>
<path fill-rule="evenodd" clip-rule="evenodd" d="M8.82116 14.6551C9.13372 14.3426 9.55765 14.167 9.99967 14.167C10.4417 14.167 10.8656 14.3426 11.1782 14.6551C11.4907 14.9677 11.6663 15.3916 11.6663 15.8337C11.6663 16.2757 11.4907 16.6996 11.1782 17.0122C10.8656 17.3247 10.4417 17.5003 9.99967 17.5003C9.55765 17.5003 9.13372 17.3247 8.82116 17.0122C8.5086 16.6996 8.33301 16.2757 8.33301 15.8337C8.33301 15.3916 8.5086 14.9677 8.82116 14.6551Z" fill="#101010"/>
<path fill-rule="evenodd" clip-rule="evenodd" d="M8.82116 2.98816C9.13372 2.6756 9.55765 2.5 9.99967 2.5C10.4417 2.5 10.8656 2.6756 11.1782 2.98816C11.4907 3.30072 11.6663 3.72464 11.6663 4.16667C11.6663 4.60869 11.4907 5.03262 11.1782 5.34518C10.8656 5.65774 10.4417 5.83333 9.99967 5.83333C9.55765 5.83333 9.13372 5.65774 8.82116 5.34518C8.5086 5.03262 8.33301 4.60869 8.33301 4.16667C8.33301 3.72464 8.5086 3.30072 8.82116 2.98816Z" fill="#101010"/>
</svg>
