<svg width="24" height="24" viewBox="0 0 24 24" fill="none" xmlns="http://www.w3.org/2000/svg">
<g clip-path="url(#clip0_932_40943)">
<path d="M9.99972 3.20145C8.43542 3.56409 6.99664 4.33865 5.8326 5.44478C4.66856 6.55092 3.82166 7.94835 3.37975 9.49212C2.93783 11.0359 2.917 12.6698 3.31941 14.2243C3.72182 15.7789 4.53281 17.1974 5.66827 18.3329C6.80372 19.4684 8.22229 20.2793 9.77683 20.6818C11.3314 21.0842 12.9653 21.0633 14.509 20.6214C16.0528 20.1795 17.4502 19.3326 18.5564 18.1686C19.6625 17.0045 20.4371 15.5657 20.7997 14.0014C20.7997 13.7362 20.6944 13.4819 20.5068 13.2943C20.3193 13.1068 20.0649 13.0014 19.7997 13.0014H12.9997C12.4693 13.0014 11.9606 12.7907 11.5855 12.4157C11.2104 12.0406 10.9997 11.5319 10.9997 11.0014V4.00145C10.9873 3.88297 10.9515 3.76814 10.8943 3.66362C10.8372 3.55909 10.7599 3.46695 10.6669 3.39253C10.5738 3.31811 10.467 3.2629 10.3524 3.2301C10.2379 3.1973 10.118 3.18756 9.99972 3.20145Z" stroke="#101010" stroke-width="2" stroke-linecap="round" stroke-linejoin="round"/>
<path d="M15 3.5C16.2697 3.94708 17.423 4.6733 18.3748 5.62516C19.3267 6.57702 20.0529 7.73028 20.5 9H16C15.7348 9 15.4804 8.89464 15.2929 8.70711C15.1054 8.51957 15 8.26522 15 8V3.5Z" stroke="#101010" stroke-width="2" stroke-linecap="round" stroke-linejoin="round"/>
</g>
<defs>
<clipPath id="clip0_932_40943">
<rect width="24" height="24" fill="white"/>
</clipPath>
</defs>
</svg>
