<svg width="32" height="32" viewBox="0 0 32 32" fill="none" xmlns="http://www.w3.org/2000/svg">
<path fill-rule="evenodd" clip-rule="evenodd" d="M17.9094 8.04607C17.1017 7.89922 16.2689 7.89697 15.4602 8.03949C14.6515 8.18201 13.8879 8.46555 13.2124 8.86913C11.8475 9.68463 10.9406 10.9275 10.6341 12.2929C10.4974 12.9017 9.95697 13.3342 9.33311 13.3342C8.00445 13.3342 6.74148 13.8397 5.81925 14.7218C4.89904 15.602 4.39372 16.7828 4.39372 18.0009C4.39372 19.219 4.89904 20.3998 5.81925 21.28C6.74148 22.1622 8.00445 22.6676 9.33311 22.6676C10.0695 22.6676 10.6664 23.2645 10.6664 24.0009C10.6664 24.7373 10.0695 25.3342 9.33311 25.3342C7.33451 25.3342 5.40649 24.5754 3.97599 23.2071C2.54348 21.8368 1.72705 19.9654 1.72705 18.0009C1.72705 16.0364 2.54348 14.165 3.97599 12.7947C5.16326 11.6591 6.69323 10.9433 8.32183 10.7327C8.95927 9.0176 10.2063 7.55882 11.8447 6.57994C12.8063 6.00541 13.8778 5.61061 14.9974 5.4133C16.117 5.21599 17.268 5.21907 18.3864 5.42242C19.5048 5.62577 20.5739 6.02638 21.5319 6.60622C22.4901 7.18616 23.3213 7.93595 23.9725 8.81867C24.6239 9.70182 25.0814 10.6998 25.3114 11.7569C25.4248 12.2782 25.4814 12.8072 25.4813 13.3361C27.0189 13.374 28.4855 14.0014 29.5758 15.0916C30.701 16.2168 31.3331 17.7429 31.3331 19.3342C31.3331 20.9255 30.701 22.4517 29.5758 23.5769C28.4505 24.7021 26.9244 25.3342 25.3331 25.3342H23.9998C23.2634 25.3342 22.6664 24.7373 22.6664 24.0009C22.6664 23.2645 23.2634 22.6676 23.9998 22.6676H25.3331C26.2172 22.6676 27.065 22.3164 27.6901 21.6913C28.3153 21.0661 28.6664 20.2183 28.6664 19.3342C28.6664 18.4502 28.3153 17.6023 27.6901 16.9772C27.065 16.3521 26.2172 16.0009 25.3331 16.0009H23.9998C23.5949 16.0009 23.2119 15.8169 22.9588 15.5008C22.7058 15.1846 22.6101 14.7707 22.6988 14.3756C22.8509 13.6982 22.8532 13.0019 22.7056 12.3238C22.5581 11.6454 22.2618 10.9918 21.8265 10.4016C21.3908 9.81099 20.8235 9.29451 20.1511 8.88755C19.4786 8.4805 18.7171 8.19292 17.9094 8.04607Z" fill="#101010"/>
<path fill-rule="evenodd" clip-rule="evenodd" d="M15.057 15.0565C15.5777 14.5358 16.4219 14.5358 16.9426 15.0565L20.9426 19.0565C21.4633 19.5772 21.4633 20.4215 20.9426 20.9422C20.4219 21.4629 19.5777 21.4629 19.057 20.9422L15.9998 17.885L12.9426 20.9422C12.4219 21.4629 11.5777 21.4629 11.057 20.9422C10.5363 20.4215 10.5363 19.5772 11.057 19.0565L15.057 15.0565Z" fill="#101010"/>
<path fill-rule="evenodd" clip-rule="evenodd" d="M15.9998 14.666C16.7362 14.666 17.3332 15.263 17.3332 15.9993V27.9993C17.3332 28.7357 16.7362 29.3327 15.9998 29.3327C15.2635 29.3327 14.6665 28.7357 14.6665 27.9993V15.9993C14.6665 15.263 15.2635 14.666 15.9998 14.666Z" fill="#101010"/>
</svg>
