<svg width="20" height="20" viewBox="0 0 20 20" fill="none" xmlns="http://www.w3.org/2000/svg">
<path fill-rule="evenodd" clip-rule="evenodd" d="M8.23223 8.23223C8.70107 7.76339 9.33696 7.5 10 7.5C10.663 7.5 11.2989 7.76339 11.7678 8.23223C12.2366 8.70107 12.5 9.33696 12.5 10C12.5 10.663 12.2366 11.2989 11.7678 11.7678C11.2989 12.2366 10.663 12.5 10 12.5C9.33696 12.5 8.70107 12.2366 8.23223 11.7678C7.76339 11.2989 7.5 10.663 7.5 10C7.5 9.33696 7.76339 8.70107 8.23223 8.23223ZM10 9.16667C9.77899 9.16667 9.56703 9.25446 9.41074 9.41074C9.25446 9.56703 9.16667 9.77899 9.16667 10C9.16667 10.221 9.25446 10.433 9.41074 10.5893C9.56703 10.7455 9.77899 10.8333 10 10.8333C10.221 10.8333 10.433 10.7455 10.5893 10.5893C10.7455 10.433 10.8333 10.221 10.8333 10C10.8333 9.77899 10.7455 9.56703 10.5893 9.41074C10.433 9.25446 10.221 9.16667 10 9.16667Z" fill="#101010"/>
<path fill-rule="evenodd" clip-rule="evenodd" d="M3.48082 10C5.32528 12.8676 7.50091 14.1667 9.99996 14.1667C12.499 14.1667 14.6746 12.8676 16.5191 10C14.6746 7.13245 12.499 5.83333 9.99996 5.83333C7.50091 5.83333 5.32528 7.13245 3.48082 10ZM1.78538 9.57126C3.88512 6.07169 6.62033 4.16667 9.99996 4.16667C13.3796 4.16667 16.1148 6.07169 18.2145 9.57126C18.3729 9.83516 18.3729 10.1648 18.2145 10.4287C16.1148 13.9283 13.3796 15.8333 9.99996 15.8333C6.62033 15.8333 3.88512 13.9283 1.78538 10.4287C1.62704 10.1648 1.62704 9.83516 1.78538 9.57126Z" fill="#101010"/>
</svg>
