<svg width="20" height="20" viewBox="0 0 20 20" fill="none" xmlns="http://www.w3.org/2000/svg">
<path fill-rule="evenodd" clip-rule="evenodd" d="M1.9429 6.88055C2.28501 6.57269 2.81192 6.60045 3.11978 6.94256C4.96108 8.98871 7.23559 10 10.0003 10C12.7651 10 15.0396 8.98871 16.8809 6.94256C17.1887 6.60045 17.7157 6.57269 18.0578 6.88055C18.3999 7.18841 18.4276 7.71532 18.1198 8.05743C15.9611 10.4563 13.2356 11.6667 10.0003 11.6667C6.76508 11.6667 4.03959 10.4563 1.88089 8.05743C1.57303 7.71532 1.60079 7.18841 1.9429 6.88055Z" fill="#101010"/>
<path fill-rule="evenodd" clip-rule="evenodd" d="M5.04177 8.63715C5.42626 8.89011 5.53289 9.40686 5.27993 9.79135L3.1966 12.958C2.94365 13.3425 2.4269 13.4491 2.04241 13.1962C1.65791 12.9432 1.55128 12.4265 1.80424 12.042L3.88757 8.87532C4.14053 8.49083 4.65728 8.3842 5.04177 8.63715Z" fill="#101010"/>
<path fill-rule="evenodd" clip-rule="evenodd" d="M14.9643 8.63781C15.3484 8.38431 15.8653 8.49019 16.1188 8.87432L18.1955 12.021C18.449 12.4051 18.3431 12.922 17.959 13.1755C17.5748 13.429 17.0579 13.3231 16.8044 12.939L14.7277 9.79235C14.4742 9.40822 14.5801 8.89132 14.9643 8.63781Z" fill="#101010"/>
<path fill-rule="evenodd" clip-rule="evenodd" d="M8.02044 10.0064C8.47713 10.0635 8.80106 10.48 8.74398 10.9367L8.32731 14.27C8.27023 14.7267 7.85373 15.0506 7.39705 14.9936C6.94037 14.9365 6.61643 14.52 6.67352 14.0633L7.09018 10.73C7.14727 10.2733 7.56376 9.94935 8.02044 10.0064Z" fill="#101010"/>
<path fill-rule="evenodd" clip-rule="evenodd" d="M11.9801 10.0064C12.4367 9.94935 12.8532 10.2733 12.9103 10.73L13.327 14.0633C13.3841 14.52 13.0601 14.9365 12.6034 14.9936C12.1468 15.0506 11.7303 14.7267 11.6732 14.27L11.2565 10.9367C11.1994 10.48 11.5234 10.0635 11.9801 10.0064Z" fill="#101010"/>
</svg>
