<svg width="24" height="24" viewBox="0 0 24 24" fill="none" xmlns="http://www.w3.org/2000/svg">
<path fill-rule="evenodd" clip-rule="evenodd" d="M2.58579 3.58579C2.96086 3.21071 3.46957 3 4 3H20C20.5304 3 21.0391 3.21071 21.4142 3.58579C21.7893 3.96086 22 4.46957 22 5V15C22 15.5304 21.7893 16.0391 21.4142 16.4142C21.0391 16.7893 20.5304 17 20 17H4C3.46957 17 2.96086 16.7893 2.58579 16.4142C2.21071 16.0391 2 15.5304 2 15V5C2 4.46957 2.21071 3.96086 2.58579 3.58579ZM20 5L4 5V15H20V5Z" fill="#101010"/>
<path fill-rule="evenodd" clip-rule="evenodd" d="M6 20C6 19.4477 6.44772 19 7 19H17C17.5523 19 18 19.4477 18 20C18 20.5523 17.5523 21 17 21H7C6.44772 21 6 20.5523 6 20Z" fill="#101010"/>
<path fill-rule="evenodd" clip-rule="evenodd" d="M9 15C9.55228 15 10 15.4477 10 16V20C10 20.5523 9.55228 21 9 21C8.44772 21 8 20.5523 8 20V16C8 15.4477 8.44772 15 9 15Z" fill="#101010"/>
<path fill-rule="evenodd" clip-rule="evenodd" d="M15 15C15.5523 15 16 15.4477 16 16V20C16 20.5523 15.5523 21 15 21C14.4477 21 14 20.5523 14 20V16C14 15.4477 14.4477 15 15 15Z" fill="#101010"/>
<path fill-rule="evenodd" clip-rule="evenodd" d="M15.2929 7.29289C15.6834 6.90237 16.3166 6.90237 16.7071 7.29289C17.0976 7.68342 17.0976 8.31658 16.7071 8.70711L13.7071 11.7071C13.3166 12.0976 12.6834 12.0976 12.2929 11.7071L11 10.4142L8.70711 12.7071C8.31658 13.0976 7.68342 13.0976 7.29289 12.7071C6.90237 12.3166 6.90237 11.6834 7.29289 11.2929L10.2929 8.29289C10.6834 7.90237 11.3166 7.90237 11.7071 8.29289L13 9.58579L15.2929 7.29289Z" fill="#101010"/>
</svg>
