<svg width="20" height="20" viewBox="0 0 20 20" fill="none" xmlns="http://www.w3.org/2000/svg">
<path fill-rule="evenodd" clip-rule="evenodd" d="M6.32116 2.98816C6.63372 2.6756 7.05765 2.5 7.49967 2.5C7.9417 2.5 8.36563 2.6756 8.67819 2.98816C8.99075 3.30072 9.16634 3.72464 9.16634 4.16667C9.16634 4.60869 8.99075 5.03262 8.67819 5.34518C8.36563 5.65774 7.9417 5.83333 7.49967 5.83333C7.05765 5.83333 6.63372 5.65774 6.32116 5.34518C6.0086 5.03262 5.83301 4.60869 5.83301 4.16667C5.83301 3.72464 6.0086 3.30072 6.32116 2.98816Z" fill="#101010"/>
<path fill-rule="evenodd" clip-rule="evenodd" d="M6.32116 8.82214C6.63372 8.50958 7.05765 8.33398 7.49967 8.33398C7.9417 8.33398 8.36563 8.50958 8.67819 8.82214C8.99075 9.1347 9.16634 9.55862 9.16634 10.0007C9.16634 10.4427 8.99075 10.8666 8.67819 11.1792C8.36563 11.4917 7.9417 11.6673 7.49967 11.6673C7.05765 11.6673 6.63372 11.4917 6.32116 11.1792C6.0086 10.8666 5.83301 10.4427 5.83301 10.0007C5.83301 9.55862 6.0086 9.1347 6.32116 8.82214Z" fill="#101010"/>
<path fill-rule="evenodd" clip-rule="evenodd" d="M6.32116 14.6542C6.63372 14.3416 7.05765 14.166 7.49967 14.166C7.9417 14.166 8.36562 14.3416 8.67819 14.6542C8.99075 14.9667 9.16634 15.3907 9.16634 15.8327C9.16634 16.2747 8.99075 16.6986 8.67819 17.0112C8.36562 17.3238 7.9417 17.4993 7.49967 17.4993C7.05765 17.4993 6.63372 17.3238 6.32116 17.0112C6.0086 16.6986 5.83301 16.2747 5.83301 15.8327C5.83301 15.3907 6.0086 14.9667 6.32116 14.6542Z" fill="#101010"/>
<path fill-rule="evenodd" clip-rule="evenodd" d="M11.3212 2.98816C11.6337 2.6756 12.0576 2.5 12.4997 2.5C12.9417 2.5 13.3656 2.6756 13.6782 2.98816C13.9907 3.30072 14.1663 3.72464 14.1663 4.16667C14.1663 4.60869 13.9907 5.03262 13.6782 5.34518C13.3656 5.65774 12.9417 5.83333 12.4997 5.83333C12.0576 5.83333 11.6337 5.65774 11.3212 5.34518C11.0086 5.03262 10.833 4.60869 10.833 4.16667C10.833 3.72464 11.0086 3.30072 11.3212 2.98816Z" fill="#101010"/>
<path fill-rule="evenodd" clip-rule="evenodd" d="M11.3212 8.82214C11.6337 8.50958 12.0576 8.33398 12.4997 8.33398C12.9417 8.33398 13.3656 8.50958 13.6782 8.82214C13.9907 9.1347 14.1663 9.55862 14.1663 10.0007C14.1663 10.4427 13.9907 10.8666 13.6782 11.1792C13.3656 11.4917 12.9417 11.6673 12.4997 11.6673C12.0576 11.6673 11.6337 11.4917 11.3212 11.1792C11.0086 10.8666 10.833 10.4427 10.833 10.0007C10.833 9.55862 11.0086 9.1347 11.3212 8.82214Z" fill="#101010"/>
<path fill-rule="evenodd" clip-rule="evenodd" d="M11.3212 14.6542C11.6337 14.3416 12.0576 14.166 12.4997 14.166C12.9417 14.166 13.3656 14.3416 13.6782 14.6542C13.9907 14.9667 14.1663 15.3907 14.1663 15.8327C14.1663 16.2747 13.9907 16.6986 13.6782 17.0112C13.3656 17.3238 12.9417 17.4993 12.4997 17.4993C12.0576 17.4993 11.6337 17.3238 11.3212 17.0112C11.0086 16.6986 10.833 16.2747 10.833 15.8327C10.833 15.3907 11.0086 14.9667 11.3212 14.6542Z" fill="#101010"/>
</svg>
