<svg width="21" height="20" viewBox="0 0 21 20" fill="none" xmlns="http://www.w3.org/2000/svg">
<path d="M16.0326 6.66667C16.0326 6.00363 15.769 5.36793 15.3001 4.89909C14.8313 4.43025 14.1956 4.16667 13.5326 4.16667H6.86589C6.20284 4.16667 5.56715 4.43025 5.09831 4.89909C4.62947 5.36793 4.36589 6.00363 4.36589 6.66667V13.3333C4.36589 13.9964 4.62947 14.6321 5.09831 15.1009C5.56715 15.5698 6.20284 15.8333 6.86589 15.8333H13.5326C14.1956 15.8333 14.8313 15.5698 15.3001 15.1009C15.769 14.6321 16.0326 13.9964 16.0326 13.3333V6.66667ZM17.6992 13.3333C17.6992 14.4384 17.2599 15.4979 16.4785 16.2793C15.6971 17.0607 14.6376 17.5 13.5326 17.5H6.86589C5.76082 17.5 4.70132 17.0607 3.91992 16.2793C3.13852 15.4979 2.69922 14.4384 2.69922 13.3333V6.66667C2.69922 5.5616 3.13852 4.5021 3.91992 3.7207C4.70132 2.9393 5.76082 2.5 6.86589 2.5H13.5326C14.6376 2.5 15.6971 2.9393 16.4785 3.7207C17.2599 4.5021 17.6992 5.5616 17.6992 6.66667V13.3333Z" fill="#101010"/>
<path d="M11.8672 10.0001C11.8672 9.55805 11.6915 9.13426 11.3789 8.8217C11.0663 8.50914 10.6425 8.33341 10.2005 8.33341C9.75849 8.33341 9.3347 8.50914 9.02214 8.8217C8.70958 9.13426 8.53385 9.55805 8.53385 10.0001C8.53385 10.4421 8.70958 10.8659 9.02214 11.1785C9.3347 11.491 9.75849 11.6667 10.2005 11.6667C10.6425 11.6667 11.0663 11.491 11.3789 11.1785C11.6915 10.8659 11.8672 10.4421 11.8672 10.0001ZM13.5339 10.0001C13.5339 10.8841 13.1824 11.7317 12.5573 12.3569C11.9322 12.982 11.0846 13.3334 10.2005 13.3334C9.31647 13.3334 8.46887 12.982 7.84375 12.3569C7.21863 11.7317 6.86719 10.8841 6.86719 10.0001C6.86719 9.11603 7.21863 8.26843 7.84375 7.64331C8.46887 7.01819 9.31647 6.66675 10.2005 6.66675C11.0846 6.66675 11.9322 7.01819 12.5573 7.64331C13.1824 8.26843 13.5339 9.11603 13.5339 10.0001Z" fill="#101010"/>
<path d="M13.1172 6.25822V6.25008C13.1172 5.78984 13.4903 5.41675 13.9505 5.41675C14.4108 5.41675 14.7839 5.78984 14.7839 6.25008V6.25822C14.7839 6.71846 14.4108 7.09155 13.9505 7.09155C13.4903 7.09155 13.1172 6.71846 13.1172 6.25822Z" fill="#101010"/>
</svg>
