<svg width="20" height="20" viewBox="0 0 20 20" fill="none" xmlns="http://www.w3.org/2000/svg">
<g clip-path="url(#clip0_863_32117)">
<path d="M10.0003 1.66602C9.81866 1.66602 9.64033 1.66768 9.46533 1.67018L8.95199 1.68435L8.70283 1.69518L8.22033 1.72352L7.75949 1.76185C3.77199 2.14852 2.14949 3.77102 1.76283 7.75852L1.72449 8.21935L1.69616 8.70185C1.69199 8.78352 1.68783 8.86685 1.68533 8.95101L1.67116 9.46435L1.66783 9.72935L1.66699 9.99935C1.66699 10.181 1.66866 10.3593 1.67116 10.5343L1.68533 11.0477L1.69616 11.2968L1.72449 11.7793L1.76283 12.2402C2.14949 16.2277 3.77199 17.8502 7.75949 18.2368L8.22033 18.2752L8.70283 18.3035C8.78449 18.3077 8.86783 18.3118 8.95199 18.3143L9.46533 18.3285L10.0003 18.3327L10.5353 18.3285L11.0487 18.3143L11.2978 18.3035L11.7803 18.2752L12.2412 18.2368C16.2287 17.8502 17.8512 16.2277 18.2378 12.2402L18.2762 11.7793L18.3045 11.2968C18.3087 11.2152 18.3128 11.1318 18.3153 11.0477L18.3295 10.5343L18.3337 9.99935L18.3295 9.46435L18.3153 8.95101L18.3045 8.70185L18.2762 8.21935L18.2378 7.75852C17.8512 3.77102 16.2287 2.14852 12.2412 1.76185L11.7803 1.72352L11.2978 1.69518C11.2148 1.69113 11.1317 1.68752 11.0487 1.68435L10.5353 1.67018L10.2703 1.66685L10.0003 1.66602ZM10.0003 4.99935C10.638 4.99931 11.2516 5.24295 11.7155 5.68042C12.1795 6.11788 12.4587 6.7161 12.4962 7.35268L12.5003 7.49935V8.33268C12.9208 8.33255 13.3258 8.49135 13.6341 8.77726C13.9424 9.06317 14.1313 9.45505 14.1628 9.87435L14.167 9.99935V12.4993C14.1671 12.9198 14.0083 13.3248 13.7224 13.6331C13.4365 13.9415 13.0446 14.1303 12.6253 14.1618L12.5003 14.166H7.50033C7.07984 14.1661 6.67485 14.0073 6.36654 13.7214C6.05822 13.4355 5.86936 13.0436 5.83783 12.6243L5.83366 12.4993V9.99935C5.83353 9.57887 5.99233 9.17388 6.27824 8.86556C6.56415 8.55724 6.95603 8.36838 7.37533 8.33685L7.50033 8.33268V7.49935C7.50033 6.83631 7.76372 6.20042 8.23256 5.73158C8.7014 5.26274 9.33728 4.99935 10.0003 4.99935ZM12.5003 9.99935H7.50033V12.4993H12.5003V9.99935ZM10.0003 6.66602C9.79621 6.66604 9.59921 6.74098 9.44668 6.87661C9.29415 7.01224 9.19671 7.19914 9.17283 7.40185L9.16699 7.49935V8.33268H10.8337V7.49935C10.8337 7.27834 10.7459 7.06637 10.5896 6.91009C10.4333 6.75381 10.2213 6.66602 10.0003 6.66602Z" fill="#101010"/>
</g>
<defs>
<clipPath id="clip0_863_32117">
<rect width="20" height="20" fill="white"/>
</clipPath>
</defs>
</svg>
