<svg width="21" height="20" viewBox="0 0 21 20" fill="none" xmlns="http://www.w3.org/2000/svg">
<path d="M13.7305 6.66675C14.1907 6.66675 14.5638 7.03984 14.5638 7.50008C14.5638 7.96032 14.1907 8.33341 13.7305 8.33341H7.0638C6.60356 8.33341 6.23047 7.96032 6.23047 7.50008C6.23047 7.03984 6.60356 6.66675 7.0638 6.66675H13.7305Z" fill="#A3A3A3"/>
<path d="M12.0638 10C12.524 10 12.8971 10.3731 12.8971 10.8333C12.8971 11.2936 12.524 11.6667 12.0638 11.6667H7.0638C6.60356 11.6667 6.23047 11.2936 6.23047 10.8333C6.23047 10.3731 6.60356 10 7.0638 10H12.0638Z" fill="#A3A3A3"/>
<path d="M17.0664 10.4167V5.83333C17.0664 5.39131 16.8907 4.96751 16.5781 4.65495C16.2656 4.34239 15.8418 4.16667 15.3997 4.16667H5.39974C4.95771 4.16667 4.53391 4.34239 4.22135 4.65495C3.90879 4.96751 3.73307 5.39131 3.73307 5.83333V12.5L3.74121 12.6644C3.77903 13.0461 3.94778 13.4048 4.22135 13.6784C4.53391 13.9909 4.95771 14.1667 5.39974 14.1667H7.89974C8.12075 14.1667 8.33265 14.2545 8.48893 14.4108L10.425 16.3468C10.74 16.1793 11.1402 16.2287 11.4056 16.4941C11.731 16.8196 11.731 17.3471 11.4056 17.6725L10.9889 18.0892C10.6635 18.4146 10.136 18.4146 9.81055 18.0892L7.55469 15.8333H5.39974C4.51568 15.8333 3.66809 15.4819 3.04297 14.8568C2.4569 14.2707 2.11133 13.4891 2.07048 12.6652L2.06641 12.5V5.83333C2.06641 4.94928 2.41785 4.10168 3.04297 3.47656C3.66809 2.85144 4.51568 2.5 5.39974 2.5H15.3997C16.2838 2.5 17.1314 2.85144 17.7565 3.47656C18.3816 4.10168 18.7331 4.94928 18.7331 5.83333V10.4167C18.7331 10.8769 18.36 11.25 17.8997 11.25C17.4395 11.25 17.0664 10.8769 17.0664 10.4167Z" fill="#A3A3A3"/>
<path d="M18.7318 16.6665L13.7318 16.6665C13.2715 16.6665 12.8984 16.2934 12.8984 15.8332C12.8984 15.3729 13.2715 14.9998 13.7318 14.9998L18.7318 14.9998C19.192 14.9998 19.5651 15.3729 19.5651 15.8332C19.5651 16.2934 19.192 16.6665 18.7318 16.6665Z" fill="#A3A3A3"/>
<path d="M15.6425 13.9226C15.3171 13.5971 15.3171 13.0696 15.6425 12.7442C15.968 12.4187 16.4955 12.4187 16.8209 12.7442L19.3209 15.2442C19.626 15.5493 19.6448 16.0318 19.3779 16.3591L19.3209 16.4226L16.8209 18.9226L16.7574 18.9795C16.4301 19.2465 15.9476 19.2277 15.6425 18.9226C15.3374 18.6175 15.3186 18.135 15.5855 17.8076L15.6425 17.7442L17.5533 15.8334L15.6425 13.9226Z" fill="#A3A3A3"/>
</svg>
