<svg width="24" height="24" viewBox="0 0 24 24" fill="none" xmlns="http://www.w3.org/2000/svg">
<path fill-rule="evenodd" clip-rule="evenodd" d="M14 8C14 7.44772 14.4477 7 15 7H15.01C15.5623 7 16.01 7.44772 16.01 8C16.01 8.55228 15.5623 9 15.01 9H15C14.4477 9 14 8.55228 14 8Z" fill="#101010"/>
<path fill-rule="evenodd" clip-rule="evenodd" d="M6 4C5.46957 4 4.96086 4.21071 4.58579 4.58579C4.21071 4.96086 4 5.46957 4 6V18C4 18.5304 4.21071 19.0391 4.58579 19.4142C4.96086 19.7893 5.46957 20 6 20H18C18.5304 20 19.0391 19.7893 19.4142 19.4142C19.7893 19.0391 20 18.5304 20 18V6C20 5.46957 19.7893 4.96086 19.4142 4.58579C19.0391 4.21071 18.5304 4 18 4H6ZM3.17157 3.17157C3.92172 2.42143 4.93913 2 6 2H18C19.0609 2 20.0783 2.42143 20.8284 3.17157C21.5786 3.92172 22 4.93913 22 6V18C22 19.0609 21.5786 20.0783 20.8284 20.8284C20.0783 21.5786 19.0609 22 18 22H6C4.93913 22 3.92172 21.5786 3.17157 20.8284C2.42143 20.0783 2 19.0609 2 18V6C2 4.93913 2.42143 3.92172 3.17157 3.17157Z" fill="#101010"/>
<path fill-rule="evenodd" clip-rule="evenodd" d="M8.69967 11.7144L3.70711 16.7069C3.31658 17.0975 2.68342 17.0975 2.29289 16.7069C1.90237 16.3164 1.90237 15.6832 2.29289 15.2927L7.29289 10.2927L7.30661 10.2793C7.92076 9.68828 8.67726 9.33008 9.5 9.33008C10.3227 9.33008 11.0792 9.68828 11.6934 10.2793L11.7071 10.2927L16.7071 15.2927C17.0976 15.6832 17.0976 16.3164 16.7071 16.7069C16.3166 17.0975 15.6834 17.0975 15.2929 16.7069L10.3003 11.7144C9.98903 11.4172 9.71184 11.3301 9.5 11.3301C9.28816 11.3301 9.01097 11.4172 8.69967 11.7144Z" fill="#101010"/>
<path fill-rule="evenodd" clip-rule="evenodd" d="M15.6997 13.7144L14.7071 14.7069C14.3166 15.0975 13.6834 15.0975 13.2929 14.7069C12.9024 14.3164 12.9024 13.6832 13.2929 13.2927L14.2929 12.2927L14.3066 12.2793C14.9208 11.6883 15.6773 11.3301 16.5 11.3301C17.3227 11.3301 18.0792 11.6883 18.6934 12.2793L18.7071 12.2927L21.7071 15.2927C22.0976 15.6832 22.0976 16.3164 21.7071 16.7069C21.3166 17.0975 20.6834 17.0975 20.2929 16.7069L17.3003 13.7144C16.989 13.4172 16.7118 13.3301 16.5 13.3301C16.2882 13.3301 16.011 13.4172 15.6997 13.7144Z" fill="#101010"/>
</svg>
