<svg width="20" height="20" viewBox="0 0 20 20" fill="none" xmlns="http://www.w3.org/2000/svg">
<path fill-rule="evenodd" clip-rule="evenodd" d="M13.4917 3.49118C13.4409 3.54192 13.3337 3.69756 13.3337 4.1665V4.99984H15.0003V4.1665C15.0003 3.69756 14.8931 3.54192 14.8423 3.49118C14.7916 3.44043 14.6359 3.33317 14.167 3.33317C13.698 3.33317 13.5424 3.44043 13.4917 3.49118ZM16.667 4.1665C16.667 3.48545 16.5159 2.80775 16.0208 2.31266C15.5257 1.81758 14.848 1.6665 14.167 1.6665C13.4859 1.6665 12.8082 1.81758 12.3132 2.31266C11.8181 2.80775 11.667 3.48545 11.667 4.1665V8.33317C11.667 8.79341 12.0401 9.1665 12.5003 9.1665C12.9606 9.1665 13.3337 8.79341 13.3337 8.33317V6.6665H15.0003V8.33317C15.0003 8.79341 15.3734 9.1665 15.8337 9.1665C16.2939 9.1665 16.667 8.79341 16.667 8.33317V4.1665Z" fill="#101010"/>
<path fill-rule="evenodd" clip-rule="evenodd" d="M11.667 11.6668C11.667 11.2066 12.0401 10.8335 12.5003 10.8335H15.8337C16.1307 10.8335 16.4053 10.9916 16.5544 11.2486C16.7035 11.5055 16.7046 11.8224 16.5572 12.0803L13.9363 16.6668H15.8337C16.2939 16.6668 16.667 17.0399 16.667 17.5002C16.667 17.9604 16.2939 18.3335 15.8337 18.3335H12.5003C12.2033 18.3335 11.9287 18.1754 11.7796 17.9184C11.6305 17.6615 11.6294 17.3446 11.7768 17.0867L14.3977 12.5002H12.5003C12.0401 12.5002 11.667 12.1271 11.667 11.6668Z" fill="#101010"/>
<path fill-rule="evenodd" clip-rule="evenodd" d="M2.74408 11.9106C3.06951 11.5851 3.59715 11.5851 3.92259 11.9106L5.83333 13.8213L7.74408 11.9106C8.06951 11.5851 8.59715 11.5851 8.92259 11.9106C9.24803 12.236 9.24803 12.7637 8.92259 13.0891L6.42259 15.5891C6.09715 15.9145 5.56951 15.9145 5.24408 15.5891L2.74408 13.0891C2.41864 12.7637 2.41864 12.236 2.74408 11.9106Z" fill="#101010"/>
<path fill-rule="evenodd" clip-rule="evenodd" d="M5.83333 4.1665C6.29357 4.1665 6.66667 4.5396 6.66667 4.99984V14.9998C6.66667 15.4601 6.29357 15.8332 5.83333 15.8332C5.3731 15.8332 5 15.4601 5 14.9998V4.99984C5 4.5396 5.3731 4.1665 5.83333 4.1665Z" fill="#101010"/>
</svg>
