<svg width="21" height="20" viewBox="0 0 21 20" fill="none" xmlns="http://www.w3.org/2000/svg">
<path fill-rule="evenodd" clip-rule="evenodd" d="M11.9226 6.91075C12.248 7.23618 12.248 7.76382 11.9226 8.08926L10.0118 10L11.9226 11.9107C12.248 12.2362 12.248 12.7638 11.9226 13.0893C11.5972 13.4147 11.0695 13.4147 10.7441 13.0893L8.24408 10.5893C7.91864 10.2638 7.91864 9.73618 8.24408 9.41075L10.7441 6.91075C11.0695 6.58531 11.5972 6.58531 11.9226 6.91075Z" fill="#101010"/>
<path fill-rule="evenodd" clip-rule="evenodd" d="M5.08934 4.58926C4.22934 5.44925 3.83341 6.99405 3.83341 10C3.83341 13.006 4.22934 14.5508 5.08934 15.4107C5.94933 16.2707 7.49413 16.6667 10.5001 16.6667C13.506 16.6667 15.0508 16.2707 15.9108 15.4107C16.7708 14.5508 17.1667 13.006 17.1667 10C17.1667 6.99405 16.7708 5.44925 15.9108 4.58926C15.0508 3.72926 13.506 3.33333 10.5001 3.33333C7.49413 3.33333 5.94933 3.72926 5.08934 4.58926ZM3.91083 3.41075C5.30083 2.02074 7.50604 1.66667 10.5001 1.66667C13.4941 1.66667 15.6993 2.02074 17.0893 3.41075C18.4793 4.80075 18.8334 7.00596 18.8334 10C18.8334 12.994 18.4793 15.1993 17.0893 16.5893C15.6993 17.9793 13.4941 18.3333 10.5001 18.3333C7.50604 18.3333 5.30083 17.9793 3.91083 16.5893C2.52082 15.1993 2.16675 12.994 2.16675 10C2.16675 7.00596 2.52082 4.80075 3.91083 3.41075Z" fill="#101010"/>
</svg>
