<svg width="20" height="20" viewBox="0 0 20 20" fill="none" xmlns="http://www.w3.org/2000/svg">
<path fill-rule="evenodd" clip-rule="evenodd" d="M3.33333 13.334C3.79357 13.334 4.16667 13.7071 4.16667 14.1673V15.834C4.16667 16.055 4.25446 16.267 4.41074 16.4232C4.56702 16.5795 4.77899 16.6673 5 16.6673H15C15.221 16.6673 15.433 16.5795 15.5893 16.4232C15.7455 16.267 15.8333 16.055 15.8333 15.834V14.1673C15.8333 13.7071 16.2064 13.334 16.6667 13.334C17.1269 13.334 17.5 13.7071 17.5 14.1673V15.834C17.5 16.497 17.2366 17.1329 16.7678 17.6018C16.2989 18.0706 15.663 18.334 15 18.334H5C4.33696 18.334 3.70107 18.0706 3.23223 17.6018C2.76339 17.1329 2.5 16.497 2.5 15.834V14.1673C2.5 13.7071 2.8731 13.334 3.33333 13.334Z" fill="#101010"/>
<path fill-rule="evenodd" clip-rule="evenodd" d="M9.41074 2.74408C9.73618 2.41864 10.2638 2.41864 10.5893 2.74408L14.7559 6.91074C15.0814 7.23618 15.0814 7.76382 14.7559 8.08926C14.4305 8.41469 13.9028 8.41469 13.5774 8.08926L10 4.51184L6.42259 8.08926C6.09715 8.41469 5.56951 8.41469 5.24408 8.08926C4.91864 7.76382 4.91864 7.23618 5.24408 6.91074L9.41074 2.74408Z" fill="#101010"/>
<path fill-rule="evenodd" clip-rule="evenodd" d="M10.0003 2.5C10.4606 2.5 10.8337 2.8731 10.8337 3.33333V13.3333C10.8337 13.7936 10.4606 14.1667 10.0003 14.1667C9.54009 14.1667 9.16699 13.7936 9.16699 13.3333V3.33333C9.16699 2.8731 9.54009 2.5 10.0003 2.5Z" fill="#101010"/>
</svg>
