<svg width="25" height="24" viewBox="0 0 25 24" fill="none" xmlns="http://www.w3.org/2000/svg">
<g clip-path="url(#clip0_932_40967)">
<path d="M8.59961 7C8.59961 8.06087 9.02104 9.07828 9.77118 9.82843C10.5213 10.5786 11.5387 11 12.5996 11C13.6605 11 14.6779 10.5786 15.428 9.82843C16.1782 9.07828 16.5996 8.06087 16.5996 7C16.5996 5.93913 16.1782 4.92172 15.428 4.17157C14.6779 3.42143 13.6605 3 12.5996 3C11.5387 3 10.5213 3.42143 9.77118 4.17157C9.02104 4.92172 8.59961 5.93913 8.59961 7Z" stroke="#101010" stroke-width="2" stroke-linecap="round" stroke-linejoin="round"/>
<path d="M6.59961 21V19C6.59961 17.9391 7.02104 16.9217 7.77118 16.1716C8.52133 15.4214 9.53874 15 10.5996 15H14.0996" stroke="#101010" stroke-width="2" stroke-linecap="round" stroke-linejoin="round"/>
<path d="M20.5996 21L22.5996 19L20.5996 17" stroke="#101010" stroke-width="2" stroke-linecap="round" stroke-linejoin="round"/>
<path d="M17.5996 17L15.5996 19L17.5996 21" stroke="#101010" stroke-width="2" stroke-linecap="round" stroke-linejoin="round"/>
</g>
<defs>
<clipPath id="clip0_932_40967">
<rect width="24" height="24" fill="white" transform="translate(0.599609)"/>
</clipPath>
</defs>
</svg>
