<svg width="64" height="64" viewBox="0 0 64 64" fill="none" xmlns="http://www.w3.org/2000/svg">
    <path fill-rule="evenodd" clip-rule="evenodd"
        d="M60.5523 16.781C61.5937 17.8224 61.5937 19.5109 60.5523 20.5523L33.8856 47.219C32.8442 48.2604 31.1558 48.2604 30.1144 47.219L16.781 33.8856C15.7397 32.8442 15.7397 31.1558 16.781 30.1144C17.8224 29.073 19.5109 29.073 20.5523 30.1144L32 41.5621L56.781 16.781C57.8224 15.7397 59.5109 15.7397 60.5523 16.781Z"
        fill="#D50245" />
    <path fill-rule="evenodd" clip-rule="evenodd"
        d="M47.219 16.781C48.2604 17.8224 48.2604 19.5109 47.219 20.5523L33.8857 33.8856C32.8443 34.927 31.1559 34.927 30.1145 33.8856C29.0731 32.8442 29.0731 31.1558 30.1145 30.1144L43.4478 16.781C44.4892 15.7397 46.1776 15.7397 47.219 16.781ZM3.4478 30.1144C4.48919 29.073 6.17763 29.073 7.21903 30.1144L20.5524 43.4477C21.5938 44.4891 21.5938 46.1776 20.5524 47.219C19.511 48.2604 17.8225 48.2604 16.7811 47.219L3.4478 33.8856C2.4064 32.8442 2.4064 31.1558 3.4478 30.1144Z"
        fill="#101010" />
</svg>