<svg width="64" height="64" viewBox="0 0 64 64" fill="none" xmlns="http://www.w3.org/2000/svg">
<path fill-rule="evenodd" clip-rule="evenodd" d="M18.6667 32C17.9595 32 17.2812 32.2809 16.7811 32.781C16.281 33.2811 16.0001 33.9594 16.0001 34.6667V50.6667C16.0001 51.3739 16.281 52.0522 16.7811 52.5523C17.2812 53.0524 17.9595 53.3333 18.6667 53.3333H32.0001C33.4728 53.3333 34.6667 54.5272 34.6667 56C34.6667 57.4728 33.4728 58.6667 32.0001 58.6667H18.6667C16.545 58.6667 14.5102 57.8238 13.0099 56.3235C11.5096 54.8232 10.6667 52.7884 10.6667 50.6667V34.6667C10.6667 32.5449 11.5096 30.5101 13.0099 29.0098C14.5102 27.5095 16.545 26.6667 18.6667 26.6667H45.3334C47.5898 26.6667 49.6338 27.6058 51.0839 29.1078C52.1068 30.1674 52.0771 31.8556 51.0176 32.8785C49.958 33.9014 48.2698 33.8717 47.2469 32.8122C46.761 32.3089 46.085 32 45.3334 32H18.6667Z" fill="#101010"/>
<path fill-rule="evenodd" clip-rule="evenodd" d="M28.2288 38.8954C29.229 37.8952 30.5856 37.3333 32.0001 37.3333C33.4146 37.3333 34.7711 37.8952 35.7713 38.8954C36.7715 39.8956 37.3334 41.2522 37.3334 42.6667C37.3334 44.0812 36.7715 45.4377 35.7713 46.4379C34.7711 47.4381 33.4146 48 32.0001 48C30.5856 48 29.229 47.4381 28.2288 46.4379C27.2287 45.4377 26.6667 44.0812 26.6667 42.6667C26.6667 41.2522 27.2287 39.8956 28.2288 38.8954Z" fill="#101010"/>
<path fill-rule="evenodd" clip-rule="evenodd" d="M32.0001 10.6667C29.8783 10.6667 27.8435 11.5095 26.3432 13.0098C24.8429 14.5101 24.0001 16.5449 24.0001 18.6667V29.3333C24.0001 30.8061 22.8062 32 21.3334 32C19.8607 32 18.6667 30.8061 18.6667 29.3333V18.6667C18.6667 15.1305 20.0715 11.7391 22.572 9.23859C25.0725 6.7381 28.4639 5.33334 32.0001 5.33334C35.5363 5.33334 38.9277 6.7381 41.4282 9.23859C43.9287 11.7391 45.3334 15.1305 45.3334 18.6667V29.3333C45.3334 30.8061 44.1395 32 42.6667 32C41.194 32 40.0001 30.8061 40.0001 29.3333V18.6667C40.0001 16.5449 39.1572 14.5101 37.6569 13.0098C36.1566 11.5095 34.1218 10.6667 32.0001 10.6667Z" fill="#101010"/>
<path fill-rule="evenodd" clip-rule="evenodd" d="M50.6719 38.6667C52.1446 38.6667 53.3385 39.8606 53.3385 41.3333V43.1242C54.2591 43.4497 55.118 43.9429 55.8691 44.5848L57.4175 43.6907C58.693 42.9543 60.3239 43.3913 61.0603 44.6667C61.7967 45.9422 61.3597 47.5731 60.0843 48.3095L58.5369 49.2029C58.6261 49.6823 58.6719 50.1721 58.6719 50.6667C58.6719 51.161 58.6261 51.6506 58.537 52.1298L60.0862 53.0236C61.3619 53.7596 61.7994 55.3904 61.0634 56.666C60.3274 57.9417 58.6967 58.3792 57.421 57.6433L55.8695 56.7482C55.1183 57.3902 54.2593 57.8836 53.3385 58.2091V60C53.3385 61.4727 52.1446 62.6667 50.6719 62.6667C49.1991 62.6667 48.0052 61.4727 48.0052 60V58.2091C47.0843 57.8835 46.225 57.39 45.4738 56.7478L43.9216 57.6433C42.6459 58.3792 41.0151 57.9417 40.2792 56.666C39.5432 55.3904 39.9807 53.7596 41.2564 53.0236L42.8067 52.1292C42.7176 51.6502 42.6719 51.1608 42.6719 50.6667C42.6719 50.1726 42.7176 49.6833 42.8066 49.2043L41.2564 48.3099C39.9807 47.574 39.5432 45.9432 40.2792 44.6675C41.0151 43.3918 42.6459 42.9543 43.9216 43.6903L45.4736 44.5857C46.2249 43.9434 47.0842 43.4498 48.0052 43.1242V41.3333C48.0052 39.8606 49.1991 38.6667 50.6719 38.6667ZM53.0259 51.9195C53.0092 51.9463 52.9929 51.9734 52.9771 52.0009C52.9618 52.0273 52.9471 52.0538 52.9329 52.0805C52.8268 52.2501 52.7012 52.4086 52.5575 52.5523C52.0574 53.0524 51.3791 53.3333 50.6719 53.3333L50.6703 53.3333C49.9636 53.3329 49.286 53.052 48.7863 52.5523C48.6386 52.4046 48.51 52.2413 48.4021 52.0664C48.3902 52.0445 48.378 52.0226 48.3655 52.0008C48.3524 51.9782 48.3391 51.9558 48.3254 51.9337C48.1171 51.5479 48.0052 51.113 48.0052 50.6667C48.0052 50.221 48.1168 49.7868 48.3244 49.4015C48.3384 49.3788 48.3521 49.3559 48.3655 49.3327C48.3784 49.3103 48.391 49.2878 48.4032 49.2652C48.5108 49.0909 48.639 48.9283 48.7863 48.781C49.2864 48.2809 49.9646 48 50.6719 48C51.3791 48 52.0574 48.2809 52.5575 48.781C52.7008 48.9244 52.8261 49.0823 52.932 49.2514C52.9466 49.2789 52.9618 49.3063 52.9775 49.3335C52.9935 49.3612 53.0099 49.3885 53.0267 49.4154C53.2296 49.7972 53.3385 50.2263 53.3385 50.6667C53.3385 51.1076 53.2293 51.5373 53.0259 51.9195Z" fill="#D50245"/>
</svg>
