<svg width="20" height="20" viewBox="0 0 20 20" fill="none" xmlns="http://www.w3.org/2000/svg">
<path fill-rule="evenodd" clip-rule="evenodd" d="M12.2953 4.60899C10.8655 4.00013 9.25239 3.98419 7.81085 4.56468C7.38393 4.73659 6.89847 4.52987 6.72656 4.10294C6.55464 3.67602 6.76137 3.19057 7.18829 3.01865C9.03986 2.27305 11.1118 2.29353 12.9483 3.07556C14.7847 3.8576 16.2353 5.33715 16.9809 7.18872C17.7265 9.04029 17.706 11.1122 16.924 12.9487C16.4413 14.0823 15.6928 15.0688 14.7551 15.8333H16.6662C17.1265 15.8333 17.4996 16.2064 17.4996 16.6667C17.4996 17.1269 17.1265 17.5 16.6662 17.5H12.4996C12.0393 17.5 11.6662 17.1269 11.6662 16.6667V16.2277C11.6659 16.215 11.6659 16.2022 11.6662 16.1895V12.5C11.6662 12.0398 12.0393 11.6667 12.4996 11.6667C12.9598 11.6667 13.3329 12.0398 13.3329 12.5V14.819C14.2362 14.1941 14.9534 13.3223 15.3906 12.2957C15.9994 10.8659 16.0154 9.25281 15.4349 7.81128C14.8544 6.36974 13.725 5.21784 12.2953 4.60899Z" fill="white"/>
<path fill-rule="evenodd" clip-rule="evenodd" d="M4.69173 5.1333C5.15197 5.1333 5.52507 5.5064 5.52507 5.96663V5.97497C5.52507 6.4352 5.15197 6.8083 4.69173 6.8083C4.23149 6.8083 3.8584 6.4352 3.8584 5.97497V5.96663C3.8584 5.5064 4.23149 5.1333 4.69173 5.1333Z" fill="white"/>
<path fill-rule="evenodd" clip-rule="evenodd" d="M3.38314 8.33325C3.84338 8.33325 4.21647 8.70635 4.21647 9.16659V9.17492C4.21647 9.63516 3.84338 10.0083 3.38314 10.0083C2.9229 10.0083 2.5498 9.63516 2.5498 9.17492V9.16659C2.5498 8.70635 2.9229 8.33325 3.38314 8.33325Z" fill="white"/>
<path fill-rule="evenodd" clip-rule="evenodd" d="M3.85872 11.75C4.31896 11.75 4.69206 12.1231 4.69206 12.5833V12.5917C4.69206 13.0519 4.31896 13.425 3.85872 13.425C3.39849 13.425 3.02539 13.0519 3.02539 12.5917V12.5833C3.02539 12.1231 3.39849 11.75 3.85872 11.75Z" fill="white"/>
<path fill-rule="evenodd" clip-rule="evenodd" d="M5.96712 14.4751C6.42736 14.4751 6.80046 14.8482 6.80046 15.3084V15.3168C6.80046 15.777 6.42736 16.1501 5.96712 16.1501C5.50689 16.1501 5.13379 15.777 5.13379 15.3168V15.3084C5.13379 14.8482 5.50689 14.4751 5.96712 14.4751Z" fill="white"/>
<path fill-rule="evenodd" clip-rule="evenodd" d="M9.16634 15.7834C9.62658 15.7834 9.99967 16.1565 9.99967 16.6168V16.6251C9.99967 17.0854 9.62658 17.4584 9.16634 17.4584C8.7061 17.4584 8.33301 17.0854 8.33301 16.6251V16.6168C8.33301 16.1565 8.7061 15.7834 9.16634 15.7834Z" fill="white"/>
</svg>
